<mxfile host="app.diagrams.net" modified="2020-09-25T07:39:06.563Z" agent="5.0 (Windows NT 10.0; Win64; x64) AppleWebKit/537.36 (KHTML, like Gecko) Chrome/85.0.4183.102 Safari/537.36" etag="4untF7nfhQHq4erXJJLP" version="13.7.5" type="github">
  <diagram id="2KMXuAgvX8xEGEAA6Z5m" name="Page-1">
    <mxGraphModel dx="1038" dy="531" grid="1" gridSize="10" guides="1" tooltips="1" connect="1" arrows="1" fold="1" page="1" pageScale="1" pageWidth="850" pageHeight="1100" math="0" shadow="0">
      <root>
        <mxCell id="0" />
        <mxCell id="1" parent="0" />
        <mxCell id="OFsbW1zccJxdHgrxnNsy-5" style="edgeStyle=orthogonalEdgeStyle;rounded=0;orthogonalLoop=1;jettySize=auto;html=1;entryX=0.5;entryY=0;entryDx=0;entryDy=0;entryPerimeter=0;endArrow=none;endFill=0;" edge="1" parent="1" source="OFsbW1zccJxdHgrxnNsy-2" target="OFsbW1zccJxdHgrxnNsy-3">
          <mxGeometry relative="1" as="geometry" />
        </mxCell>
        <mxCell id="OFsbW1zccJxdHgrxnNsy-2" value="External PIS" style="shape=process;whiteSpace=wrap;html=1;backgroundOutline=1;fillColor=#d5e8d4;strokeColor=#82b366;" vertex="1" parent="1">
          <mxGeometry x="235" y="25" width="120" height="60" as="geometry" />
        </mxCell>
        <mxCell id="OFsbW1zccJxdHgrxnNsy-3" value="" style="html=1;dashed=0;whitespace=wrap;fillColor=#2875E2;strokeColor=#ffffff;points=[[0.005,0.63,0],[0.1,0.2,0],[0.9,0.2,0],[0.5,0,0],[0.995,0.63,0],[0.72,0.99,0],[0.5,1,0],[0.28,0.99,0]];shape=mxgraph.kubernetes.icon;prIcon=api" vertex="1" parent="1">
          <mxGeometry x="270" y="120" width="50" height="48" as="geometry" />
        </mxCell>
        <mxCell id="OFsbW1zccJxdHgrxnNsy-6" value="" style="edgeStyle=orthogonalEdgeStyle;rounded=0;orthogonalLoop=1;jettySize=auto;html=1;endArrow=none;endFill=0;" edge="1" parent="1" source="OFsbW1zccJxdHgrxnNsy-4" target="OFsbW1zccJxdHgrxnNsy-3">
          <mxGeometry relative="1" as="geometry" />
        </mxCell>
        <mxCell id="OFsbW1zccJxdHgrxnNsy-4" value="" style="image;html=1;image=img/lib/clip_art/networking/Firewall_02_128x128.png" vertex="1" parent="1">
          <mxGeometry x="255" y="200" width="80" height="80" as="geometry" />
        </mxCell>
        <mxCell id="OFsbW1zccJxdHgrxnNsy-7" value="" style="rounded=0;whiteSpace=wrap;html=1;" vertex="1" parent="1">
          <mxGeometry x="80" y="290" width="570" height="200" as="geometry" />
        </mxCell>
        <mxCell id="OFsbW1zccJxdHgrxnNsy-8" value="Accounting System" style="shape=process;whiteSpace=wrap;html=1;backgroundOutline=1;fillColor=#d5e8d4;strokeColor=#82b366;" vertex="1" parent="1">
          <mxGeometry x="510" y="310" width="120" height="60" as="geometry" />
        </mxCell>
        <mxCell id="OFsbW1zccJxdHgrxnNsy-13" value="" style="edgeStyle=orthogonalEdgeStyle;rounded=0;orthogonalLoop=1;jettySize=auto;html=1;endArrow=none;endFill=0;" edge="1" parent="1" source="OFsbW1zccJxdHgrxnNsy-9" target="OFsbW1zccJxdHgrxnNsy-10">
          <mxGeometry relative="1" as="geometry">
            <Array as="points">
              <mxPoint x="300" y="380" />
              <mxPoint x="450" y="380" />
            </Array>
          </mxGeometry>
        </mxCell>
        <mxCell id="OFsbW1zccJxdHgrxnNsy-17" style="edgeStyle=orthogonalEdgeStyle;rounded=0;orthogonalLoop=1;jettySize=auto;html=1;endArrow=none;endFill=0;" edge="1" parent="1" source="OFsbW1zccJxdHgrxnNsy-9" target="OFsbW1zccJxdHgrxnNsy-12">
          <mxGeometry relative="1" as="geometry" />
        </mxCell>
        <mxCell id="OFsbW1zccJxdHgrxnNsy-20" value="" style="edgeStyle=orthogonalEdgeStyle;rounded=0;orthogonalLoop=1;jettySize=auto;html=1;endArrow=none;endFill=0;" edge="1" parent="1" source="OFsbW1zccJxdHgrxnNsy-9" target="OFsbW1zccJxdHgrxnNsy-19">
          <mxGeometry relative="1" as="geometry" />
        </mxCell>
        <mxCell id="OFsbW1zccJxdHgrxnNsy-9" value="Web Server" style="rounded=0;whiteSpace=wrap;html=1;" vertex="1" parent="1">
          <mxGeometry x="235" y="310" width="120" height="60" as="geometry" />
        </mxCell>
        <mxCell id="OFsbW1zccJxdHgrxnNsy-22" value="" style="edgeStyle=orthogonalEdgeStyle;rounded=0;orthogonalLoop=1;jettySize=auto;html=1;endArrow=none;endFill=0;" edge="1" parent="1" source="OFsbW1zccJxdHgrxnNsy-10" target="OFsbW1zccJxdHgrxnNsy-14">
          <mxGeometry relative="1" as="geometry" />
        </mxCell>
        <mxCell id="OFsbW1zccJxdHgrxnNsy-10" value="DB Server" style="rounded=0;whiteSpace=wrap;html=1;" vertex="1" parent="1">
          <mxGeometry x="390" y="399" width="120" height="60" as="geometry" />
        </mxCell>
        <mxCell id="OFsbW1zccJxdHgrxnNsy-11" value="Internal" style="text;html=1;align=center;verticalAlign=middle;resizable=0;points=[];autosize=1;" vertex="1" parent="1">
          <mxGeometry x="400" y="280" width="60" height="20" as="geometry" />
        </mxCell>
        <mxCell id="OFsbW1zccJxdHgrxnNsy-12" value="" style="pointerEvents=1;shadow=0;dashed=0;html=1;strokeColor=none;fillColor=#505050;labelPosition=center;verticalLabelPosition=bottom;verticalAlign=top;outlineConnect=0;align=center;shape=mxgraph.office.servers.file_server;" vertex="1" parent="1">
          <mxGeometry x="130" y="410" width="45" height="56" as="geometry" />
        </mxCell>
        <mxCell id="OFsbW1zccJxdHgrxnNsy-14" value="DB" style="shape=cylinder3;whiteSpace=wrap;html=1;boundedLbl=1;backgroundOutline=1;size=15;" vertex="1" parent="1">
          <mxGeometry x="547.5" y="398" width="45" height="62" as="geometry" />
        </mxCell>
        <mxCell id="OFsbW1zccJxdHgrxnNsy-16" style="edgeStyle=orthogonalEdgeStyle;rounded=0;orthogonalLoop=1;jettySize=auto;html=1;entryX=0.5;entryY=0;entryDx=0;entryDy=0;endArrow=none;endFill=0;" edge="1" parent="1" source="OFsbW1zccJxdHgrxnNsy-4" target="OFsbW1zccJxdHgrxnNsy-9">
          <mxGeometry relative="1" as="geometry" />
        </mxCell>
        <mxCell id="OFsbW1zccJxdHgrxnNsy-21" value="" style="edgeStyle=orthogonalEdgeStyle;rounded=0;orthogonalLoop=1;jettySize=auto;html=1;endArrow=none;endFill=0;" edge="1" parent="1" source="OFsbW1zccJxdHgrxnNsy-19" target="OFsbW1zccJxdHgrxnNsy-8">
          <mxGeometry relative="1" as="geometry" />
        </mxCell>
        <mxCell id="OFsbW1zccJxdHgrxnNsy-19" value="" style="html=1;dashed=0;whitespace=wrap;fillColor=#2875E2;strokeColor=#ffffff;points=[[0.005,0.63,0],[0.1,0.2,0],[0.9,0.2,0],[0.5,0,0],[0.995,0.63,0],[0.72,0.99,0],[0.5,1,0],[0.28,0.99,0]];shape=mxgraph.kubernetes.icon;prIcon=api" vertex="1" parent="1">
          <mxGeometry x="410" y="316" width="50" height="48" as="geometry" />
        </mxCell>
      </root>
    </mxGraphModel>
  </diagram>
</mxfile>
